# xmcd CD Database Entry
#
# Track frame offsets:
# 150
# 19686
# 42562
# 61989
# 81264
# 102632
# 117370
# 136388
# 154963
# 171491
# 194748
# 220677
# 239096
# 255121
# 278512
# 293787
# 316609
# 336616
#
# Disc length: 4786 seconds
#
# Revision: 4
# Processed by: cddbd v1.5.1PL0 Copyright (c) Steve Scherf et al.
# Submitted via: tcd 2.0b
#
DISCID=1412b012
DTITLE=Unknown - 203040
DYEAR=1900
DGENRE=
TTITLE0=20 30 40
TTITLE1=so stupid
TTITLE2=short lyrics
TTITLE3=good or bad
TTITLE4=the 60s
TTITLE5=no worry about love
TTITLE6=woman woman woman
TTITLE7=it will be better next time
TTITLE8=lovely guy
TTITLE9=crazy for love
TTITLE10=later
TTITLE11=havest
TTITLE12=love
TTITLE13=i believe
TTITLE14=left bank
TTITLE15=city forgotten
TTITLE16=light the orange tree
TTITLE17=for a long time
EXTD=
EXTT0=
EXTT1=
EXTT2=
EXTT3=
EXTT4=
EXTT5=
EXTT6=
EXTT7=
EXTT8=
EXTT9=
EXTT10=
EXTT11=
EXTT12=
EXTT13=
EXTT14=
EXTT15=
EXTT16=
EXTT17=
PLAYORDER=
